<svg width="18" height="18" viewBox="0 0 18 18" fill="none" xmlns="http://www.w3.org/2000/svg">
<path d="M9 5.81818H5.625V9.63636H9V5.81818ZM10.125 12.1818V13.4545H4.5V12.1818H10.125ZM10.125 4.54545V10.9091H4.5V4.54545H10.125ZM15.75 12.1818V13.4545H11.25V12.1818H15.75ZM15.75 9.63636V10.9091H11.25V9.63636H15.75ZM15.75 7.09091V8.36364H11.25V7.09091H15.75ZM15.75 4.54545V5.81818H11.25V4.54545H15.75ZM2.25 14.0909V4.54545H1.125V14.0909C1.125 14.2633 1.18066 14.4124 1.29199 14.5384C1.40332 14.6643 1.53516 14.7273 1.6875 14.7273C1.83984 14.7273 1.97168 14.6643 2.08301 14.5384C2.19434 14.4124 2.25 14.2633 2.25 14.0909ZM16.875 14.0909V3.27273H3.375V14.0909C3.375 14.3097 3.34277 14.5218 3.27832 14.7273H16.3125C16.4648 14.7273 16.5967 14.6643 16.708 14.5384C16.8193 14.4124 16.875 14.2633 16.875 14.0909ZM18 2V14.0909C18 14.6212 17.8359 15.072 17.5078 15.4432C17.1797 15.8144 16.7812 16 16.3125 16H1.6875C1.21875 16 0.820312 15.8144 0.492188 15.4432C0.164063 15.072 0 14.6212 0 14.0909V3.27273H2.25V2H18Z" fill="#B9B9B9"/>
</svg>
