<svg width="18" height="18" viewBox="0 0 18 18" fill="none" xmlns="http://www.w3.org/2000/svg">
<mask id="mask0_87_148" style="mask-type:alpha" maskUnits="userSpaceOnUse" x="0" y="0" width="18" height="18">
<rect width="18" height="18" fill="#D9D9D9"/>
</mask>
<g mask="url(#mask0_87_148)">
<path d="M5.625 11.25H6.75V8.25H5.625V9.1875H4.5V10.3125H5.625V11.25ZM7.5 10.3125H13.5V9.1875H7.5V10.3125ZM11.25 8.25H12.375V7.3125H13.5V6.1875H12.375V5.25H11.25V8.25ZM4.5 7.3125H10.5V6.1875H4.5V7.3125ZM6 15.75V14.25H3C2.5875 14.25 2.23438 14.1031 1.94063 13.8094C1.64688 13.5156 1.5 13.1625 1.5 12.75V3.75C1.5 3.3375 1.64688 2.98438 1.94063 2.69063C2.23438 2.39688 2.5875 2.25 3 2.25H15C15.4125 2.25 15.7656 2.39688 16.0594 2.69063C16.3531 2.98438 16.5 3.3375 16.5 3.75V12.75C16.5 13.1625 16.3531 13.5156 16.0594 13.8094C15.7656 14.1031 15.4125 14.25 15 14.25H12V15.75H6ZM3 12.75H15V3.75H3V12.75Z" fill="#646464"/>
</g>
</svg>
