<svg width="21" height="21" viewBox="0 0 21 21" fill="none" xmlns="http://www.w3.org/2000/svg">
<g clip-path="url(#clip0_950_121)">
<path fill-rule="evenodd" clip-rule="evenodd" d="M14.031 0.219122C13.9261 0.113961 13.7923 0.0423145 13.6467 0.0132643C13.501 -0.0157859 13.35 -0.000931242 13.2128 0.055945C13.0756 0.112821 12.9584 0.209158 12.876 0.332742C12.7936 0.456325 12.7497 0.601591 12.75 0.750121V3.00012H3.75C2.75544 3.00012 1.80161 3.39521 1.09835 4.09847C0.395088 4.80173 0 5.75556 0 6.75012L0 9.00012C0 9.39795 0.158035 9.77948 0.43934 10.0608C0.720644 10.3421 1.10218 10.5001 1.5 10.5001C1.89782 10.5001 2.27936 10.3421 2.56066 10.0608C2.84196 9.77948 3 9.39795 3 9.00012V6.75012C3 6.55121 3.07902 6.36044 3.21967 6.21979C3.36032 6.07914 3.55109 6.00012 3.75 6.00012H12.75V8.25012C12.7497 8.39865 12.7936 8.54392 12.876 8.6675C12.9584 8.79109 13.0756 8.88742 13.2128 8.9443C13.35 9.00117 13.501 9.01603 13.6467 8.98698C13.7923 8.95793 13.9261 8.88628 14.031 8.78112L17.781 5.03112C17.8508 4.96145 17.9063 4.87869 17.9441 4.78757C17.9819 4.69645 18.0013 4.59877 18.0013 4.50012C18.0013 4.40147 17.9819 4.30379 17.9441 4.21267C17.9063 4.12155 17.8508 4.03879 17.781 3.96912L14.031 0.219122ZM7.785 12.0571C7.92244 12.1136 8.04 12.2096 8.12279 12.333C8.20558 12.4564 8.24985 12.6015 8.25 12.7501V15.0001H17.25C17.4489 15.0001 17.6397 14.9211 17.7803 14.7805C17.921 14.6398 18 14.449 18 14.2501V12.0001C18 11.6023 18.158 11.2208 18.4393 10.9395C18.7206 10.6582 19.1022 10.5001 19.5 10.5001C19.8978 10.5001 20.2794 10.6582 20.5607 10.9395C20.842 11.2208 21 11.6023 21 12.0001V14.2501C21 14.7426 20.903 15.2302 20.7145 15.6852C20.5261 16.1402 20.2499 16.5536 19.9017 16.9018C19.5534 17.25 19.14 17.5262 18.6851 17.7147C18.2301 17.9031 17.7425 18.0001 17.25 18.0001H8.25V20.2501C8.25027 20.3987 8.20642 20.5439 8.12403 20.6675C8.04164 20.7911 7.92441 20.8874 7.7872 20.9443C7.64999 21.0012 7.49898 21.016 7.35331 20.987C7.20765 20.9579 7.07389 20.8863 6.969 20.7811L3.219 17.0311C3.14916 16.9615 3.09374 16.8787 3.05593 16.7876C3.01812 16.6965 2.99866 16.5988 2.99866 16.5001C2.99866 16.4015 3.01812 16.3038 3.05593 16.2127C3.09374 16.1216 3.14916 16.0388 3.219 15.9691L6.969 12.2191C7.07397 12.1143 7.20766 12.043 7.35318 12.0141C7.49869 11.9853 7.64799 12.0002 7.785 12.0571Z" fill="black"/>
</g>
<defs>
<clipPath id="clip0_950_121">
<rect width="21" height="21" fill="white"/>
</clipPath>
</defs>
</svg>
