<svg width="18" height="18" viewBox="0 0 18 18" fill="none" xmlns="http://www.w3.org/2000/svg">
<mask id="mask0_84_77" style="mask-type:alpha" maskUnits="userSpaceOnUse" x="0" y="0" width="18" height="18">
<rect width="18" height="18" fill="#D9D9D9"/>
</mask>
<g mask="url(#mask0_84_77)">
<path d="M9.75 15.75V14.25H13.2L9.75 10.8V8.7L14.25 13.2V9.75H15.75V15.75H9.75ZM4.5 12.75V12H2.25V10.5H6.75V8.25H3.75C3.3375 8.25 2.98438 8.10313 2.69063 7.80937C2.39688 7.51562 2.25 7.1625 2.25 6.75V4.5C2.25 4.0875 2.39688 3.73438 2.69063 3.44062C2.98438 3.14687 3.3375 3 3.75 3H4.5V2.25H6V3H8.25V4.5H3.75V6.75H6.75C7.1625 6.75 7.51562 6.89687 7.80937 7.19063C8.10313 7.48438 8.25 7.8375 8.25 8.25V10.5C8.25 10.9125 8.10313 11.2656 7.80937 11.5594C7.51562 11.8531 7.1625 12 6.75 12H6V12.75H4.5Z" fill="#646464"/>
</g>
</svg>
