<svg width="18" height="18" viewBox="0 0 18 18" fill="none" xmlns="http://www.w3.org/2000/svg">
<mask id="mask0_84_71" style="mask-type:alpha" maskUnits="userSpaceOnUse" x="0" y="0" width="18" height="18">
<rect width="18" height="18" fill="#D9D9D9"/>
</mask>
<g mask="url(#mask0_84_71)">
<path d="M6 15C4.5375 15 3.29688 14.4906 2.27813 13.4719C1.25938 12.4531 0.75 11.2125 0.75 9.75C0.75 8.4125 1.19062 7.24688 2.07188 6.25313C2.95312 5.25938 4.05625 4.6875 5.38125 4.5375L4.2 3.3L5.25 2.25L8.25 5.25L5.25 8.25L4.2 7.18125L5.30625 6.075C4.41875 6.25 3.6875 6.68125 3.1125 7.36875C2.5375 8.05625 2.25 8.85 2.25 9.75C2.25 10.7875 2.61563 11.6719 3.34688 12.4031C4.07812 13.1344 4.9625 13.5 6 13.5H8.25V15H6ZM9.75 8.25V3H16.5V8.25H9.75ZM9.75 15V9.75H16.5V15H9.75ZM11.25 13.5H15V11.25H11.25V13.5Z" fill="#646464"/>
</g>
</svg>
